<?xml version="1.0" standalone="no"?>
<!DOCTYPE svg PUBLIC "-//W3C//DTD SVG 20010904//EN"
 "http://www.w3.org/TR/2001/REC-SVG-20010904/DTD/svg10.dtd">
<svg version="1.0" xmlns="http://www.w3.org/2000/svg"
 width="962.000000pt" height="691.000000pt" viewBox="0 0 962.000000 691.000000"
 preserveAspectRatio="xMidYMid meet">
<metadata>
Created by potrace 1.16, written by Peter Selinger 2001-2019
</metadata>
<g transform="translate(0.000000,691.000000) scale(0.100000,-0.100000)"
fill="#000000" stroke="none">
<path d="M8390 6151 c254 -90 398 -203 482 -376 48 -100 68 -193 68 -319 0
-272 -90 -567 -301 -981 -121 -240 -240 -436 -491 -816 -170 -257 -147 -239
-304 -239 -56 0 -94 -4 -94 -10 0 -6 42 -10 105 -10 58 0 105 -4 105 -8 0 -5
-26 -53 -58 -108 -192 -325 -399 -743 -467 -945 -13 -37 -31 -113 -41 -169
-24 -138 -12 -227 47 -340 70 -134 173 -221 304 -256 85 -23 222 -18 314 11
194 62 397 257 505 484 29 61 31 74 31 171 0 107 -11 145 -53 193 -18 20 -61
22 -86 4 -18 -13 -17 -16 12 -56 52 -71 74 -143 66 -215 -18 -168 -121 -326
-282 -434 -126 -84 -206 -114 -318 -120 -102 -5 -176 11 -234 50 -49 33 -134
142 -153 197 -57 160 -12 430 124 750 92 214 384 755 423 784 6 4 155 7 331 5
307 -3 322 -2 359 18 49 25 67 51 46 64 -25 16 -150 11 -429 -15 -145 -14
-266 -23 -269 -20 -3 2 26 53 63 112 86 136 169 271 300 488 423 701 553 1062
513 1425 -32 300 -163 484 -443 619 -107 53 -236 101 -263 100 -9 0 30 -17 88
-38z"/>
<path d="M4100 5667 c-117 -48 -198 -124 -303 -282 -32 -49 -78 -128 -102
-175 l-43 -86 -99 -28 c-351 -100 -872 -322 -1299 -551 -668 -360 -1023 -589
-1409 -912 -134 -112 -409 -373 -426 -405 -16 -29 -1 -60 26 -56 15 2 117 95
282 258 281 278 398 380 600 522 710 499 1465 885 2158 1104 76 24 142 43 146
42 4 -2 -13 -54 -37 -116 -24 -62 -91 -266 -150 -455 -58 -188 -126 -407 -151
-487 -290 -935 -330 -1067 -493 -1625 -123 -419 -209 -710 -247 -835 l-26 -84
-59 63 c-160 171 -207 433 -132 736 32 128 123 350 232 564 81 161 110 227
102 235 -20 20 -44 -9 -103 -125 -103 -205 -224 -537 -264 -723 -12 -56 -18
-125 -17 -226 0 -130 3 -153 27 -225 33 -101 82 -183 154 -260 l56 -60 -34
-100 c-68 -204 -214 -458 -318 -553 -53 -48 -135 -85 -191 -86 -68 -1 -99 25
-261 224 -21 25 -40 42 -45 38 -26 -27 218 -282 282 -294 90 -17 171 23 279
138 88 92 139 173 253 398 52 102 95 186 96 188 2 1 45 -18 97 -42 182 -85
391 -117 650 -98 424 31 922 175 1304 376 829 437 1508 1249 1630 1951 103
585 -139 1119 -651 1441 -160 100 -319 155 -580 200 -141 25 -184 28 -379 28
-234 -1 -374 -14 -580 -58 -60 -13 -112 -22 -113 -21 -5 5 51 86 124 181 106
137 202 204 294 204 66 0 97 -17 159 -87 56 -62 68 -60 22 4 -107 147 -316
220 -461 160z m690 -458 c394 -37 689 -169 946 -424 134 -134 235 -295 302
-485 128 -364 80 -804 -134 -1233 -250 -500 -561 -856 -1049 -1204 -363 -258
-578 -359 -990 -461 -240 -60 -392 -82 -610 -89 -283 -8 -461 23 -613 109 -41
23 -52 34 -46 47 67 156 192 523 314 926 92 303 606 1847 665 1995 7 19 37 98
65 175 56 150 180 412 254 536 l45 76 63 13 c35 8 170 16 303 20 132 3 269 7
305 8 36 1 117 -3 180 -9z"/>
<path d="M8252 5680 c-87 -12 -178 -44 -236 -84 -118 -82 -225 -216 -285 -360
-36 -86 -46 -129 -66 -281 -11 -89 -12 -112 -1 -123 18 -19 44 -5 55 31 6 18
15 86 20 152 13 142 30 213 72 298 96 189 186 273 336 312 169 44 309 -18 383
-168 65 -134 44 -297 -69 -522 -90 -179 -138 -256 -325 -530 -74 -108 -281
-460 -474 -805 -335 -602 -591 -1123 -764 -1555 -149 -371 -186 -504 -195
-695 -6 -149 3 -195 55 -252 45 -50 86 -68 149 -68 117 1 173 38 127 84 -22
23 -57 20 -114 -10 -60 -31 -89 -27 -136 20 -46 46 -57 99 -51 231 7 149 66
351 174 605 113 264 483 986 651 1270 373 632 589 976 780 1243 325 454 422
652 422 861 -1 132 -46 221 -148 289 -76 51 -226 75 -360 57z"/>
<path d="M6706 3239 c-55 -13 -144 -63 -193 -109 -56 -51 -152 -199 -191 -292
-63 -150 -63 -261 0 -319 79 -75 281 -43 502 78 141 78 475 317 461 331 -2 2
-51 -33 -109 -77 -354 -272 -655 -406 -760 -337 -37 23 -59 79 -51 125 13 79
18 84 123 119 231 79 400 190 452 297 59 123 -68 223 -234 184z m218 -131 c21
-61 -60 -157 -195 -231 -83 -45 -303 -131 -320 -125 -15 5 85 149 148 214 104
108 232 177 318 171 33 -2 41 -7 49 -29z"/>
<path d="M8548 3220 c-115 -29 -278 -129 -365 -224 -172 -188 -217 -407 -100
-482 55 -36 104 -47 186 -42 121 8 182 37 272 128 l75 77 -4 -51 c-4 -45 -1
-56 22 -83 37 -44 75 -57 152 -50 112 9 185 73 360 316 41 57 73 106 70 108
-3 3 -20 -16 -38 -43 -170 -247 -286 -354 -381 -354 -45 0 -74 23 -88 70 -13
43 -5 73 38 142 35 57 31 72 -17 65 -50 -6 -59 -13 -127 -104 -99 -131 -199
-193 -329 -201 -62 -4 -78 -1 -109 18 -53 33 -68 70 -63 154 7 110 52 182 169
272 111 85 217 124 340 124 43 0 61 -4 65 -15 8 -21 -14 -81 -43 -116 -14 -16
-23 -32 -20 -36 15 -14 132 152 148 211 14 50 6 79 -27 101 -32 21 -132 29
-186 15z"/>
</g>
</svg>
