<?xml version="1.0" standalone="no"?>
<!DOCTYPE svg PUBLIC "-//W3C//DTD SVG 20010904//EN"
 "http://www.w3.org/TR/2001/REC-SVG-20010904/DTD/svg10.dtd">
<svg version="1.0" xmlns="http://www.w3.org/2000/svg"
 width="819.000000pt" height="571.000000pt" viewBox="0 0 819.000000 571.000000"
 preserveAspectRatio="xMidYMid meet">
<metadata>
Created by potrace 1.16, written by Peter Selinger 2001-2019
</metadata>
<g transform="translate(0.000000,571.000000) scale(0.100000,-0.100000)"
fill="#000000" stroke="none">
<path d="M4451 4439 c-277 -27 -532 -102 -711 -211 -47 -28 -132 -87 -189
-130 l-104 -80 -191 10 c-346 18 -570 -17 -736 -114 -106 -62 -166 -149 -177
-258 -5 -46 -1 -62 27 -121 35 -73 84 -134 133 -164 73 -44 241 -81 371 -81
l68 0 -7 -27 c-41 -161 -53 -295 -35 -374 39 -168 175 -301 325 -318 l54 -6
-54 -71 -54 -71 -68 -2 c-135 -3 -368 -56 -503 -114 -163 -71 -299 -188 -362
-310 -26 -51 -32 -74 -32 -127 -1 -146 88 -229 232 -217 108 9 203 54 387 185
80 58 366 334 467 452 l56 64 72 -17 c154 -37 337 -145 399 -237 34 -50 64
-127 53 -134 -17 -11 -355 -48 -444 -50 -103 -1 -120 -12 -56 -33 45 -15 151
-29 346 -47 84 -7 155 -16 158 -19 23 -22 -69 -246 -126 -307 -42 -45 -199
-68 -509 -75 -107 -3 -196 -7 -198 -9 -3 -2 6 -11 19 -19 24 -16 402 -67 491
-67 26 0 47 -4 47 -8 0 -11 -132 -114 -204 -158 -66 -42 -222 -98 -320 -115
-125 -21 -248 26 -283 109 -20 49 -5 115 45 198 57 96 159 163 279 185 32 6
71 18 86 26 47 24 20 34 -65 23 -184 -23 -299 -103 -382 -267 -66 -132 -8
-253 150 -313 70 -26 105 -25 236 4 181 41 333 122 478 254 l65 59 165 6 c339
13 723 75 1130 182 170 45 418 90 580 106 314 30 697 -22 927 -127 29 -14 73
-27 99 -31 159 -22 -156 121 -437 197 -314 86 -736 118 -1042 79 -319 -40
-699 -110 -1099 -202 -104 -24 -188 -40 -188 -35 0 5 11 25 25 46 29 44 71
154 86 224 11 49 12 50 43 45 96 -16 384 24 777 107 217 46 419 75 571 82 144
7 279 -9 520 -62 167 -36 188 -39 188 -25 0 17 -26 29 -130 64 -152 51 -288
81 -545 123 -147 24 -468 24 -650 0 -166 -21 -431 -67 -610 -106 -77 -16 -144
-30 -150 -30 -6 0 -24 30 -40 67 -56 128 -213 254 -397 317 -42 14 -83 26 -92
26 -9 0 -16 5 -16 10 0 12 104 162 122 178 7 5 57 24 110 42 231 76 545 307
772 569 153 177 205 262 206 334 0 31 -5 40 -32 57 -41 25 -122 26 -199 4
-240 -70 -675 -443 -952 -816 -121 -164 -113 -159 -218 -135 -80 19 -139 62
-169 122 -22 44 -25 62 -25 155 1 96 4 112 37 196 20 50 47 113 61 141 l26 50
85 22 c176 44 671 269 596 271 -19 0 -240 -76 -310 -107 -80 -36 -251 -99
-289 -108 -32 -7 -32 -6 -20 17 63 121 256 345 429 498 l68 60 308 -20 c467
-31 862 -21 1022 26 124 35 224 100 259 167 19 37 19 117 0 154 -29 54 -99
102 -187 126 -69 20 -366 48 -480 46 -47 -1 -123 -5 -169 -10z m599 -75 c93
-21 138 -43 178 -88 42 -48 46 -68 23 -113 -70 -139 -242 -190 -671 -200 -225
-6 -735 17 -798 36 -21 6 -8 17 100 88 271 179 522 275 773 296 95 8 325 -3
395 -19z m-1664 -396 c4 -5 -33 -49 -82 -98 -102 -104 -198 -241 -280 -403
-31 -61 -58 -113 -59 -115 -1 -1 -36 2 -76 9 -141 21 -303 118 -349 209 -9 19
-20 55 -24 80 -6 39 -2 55 24 106 25 50 42 69 97 107 98 67 168 88 373 111 60
7 368 1 376 -6z m184 -61 c0 -2 -12 -14 -27 -28 l-28 -24 24 28 c23 25 31 32
31 24z m-127 -129 c-22 -24 -60 -63 -83 -88 -23 -25 -40 -39 -38 -33 3 14 148
163 157 163 3 0 -13 -19 -36 -42z m-223 -105 c0 -5 -11 -21 -25 -38 -28 -34
-34 -17 -7 20 17 24 32 32 32 18z m-754 -38 c4 -21 2 -41 -5 -49 -14 -17 -2
-51 40 -112 35 -52 26 -58 -18 -11 -38 38 -53 75 -53 125 0 79 24 110 36 47z
m2092 -108 c4 -32 -45 -126 -110 -215 -23 -31 -114 -129 -203 -217 -132 -132
-183 -176 -290 -247 -132 -87 -238 -146 -313 -172 -23 -9 -42 -12 -42 -8 0 10
192 263 278 367 107 128 210 232 337 338 186 157 237 188 300 184 36 -2 40 -5
43 -30z m-1016 -712 c-16 -33 -42 -54 -42 -35 0 6 4 10 8 10 4 0 16 14 25 30
25 41 31 38 9 -5z m8 -49 c0 -3 -4 -8 -10 -11 -5 -3 -10 -1 -10 4 0 6 5 11 10
11 6 0 10 -2 10 -4z m-420 -392 c0 -3 -25 -40 -57 -82 -194 -265 -432 -500
-587 -579 -53 -27 -98 -28 -152 -2 -80 39 -99 156 -42 270 82 164 272 284 570
358 116 29 268 49 268 35z m-40 -225 c0 -3 -10 -14 -21 -25 -17 -14 -23 -16
-26 -6 -4 10 -9 9 -24 -4 -28 -26 -23 -6 9 30 22 26 30 30 45 22 9 -6 17 -14
17 -17z m1974 -69 c-96 -13 -213 -18 -237 -11 -22 6 113 17 233 18 l65 0 -61
-7z m-664 -166 c-41 -8 -79 -12 -85 -10 -13 4 91 24 130 24 17 0 -4 -6 -45
-14z m975 -199 c-21 -8 -290 -35 -334 -34 -60 2 -29 8 132 24 129 12 222 17
202 10z m-522 -61 c9 -10 -4 -34 -18 -34 -8 0 -26 5 -42 12 l-28 11 35 7 c19
4 38 8 41 9 3 0 8 -2 12 -5z m-346 -60 c-3 -3 -12 -4 -19 -1 -8 3 -5 6 6 6 11
1 17 -2 13 -5z m237 -33 c4 -5 -15 -14 -41 -19 -110 -24 -395 -73 -399 -69 -2
2 85 23 194 46 108 23 202 44 207 46 19 7 34 5 39 -4z"/>
</g>
</svg>
